<?xml version="1.0" encoding="utf-8"?>
<!-- Generator: Adobe Illustrator 25.0.1, SVG Export Plug-In . SVG Version: 6.00 Build 0)  -->
<svg version="1.1" id="Layer_1" xmlns="http://www.w3.org/2000/svg" xmlns:xlink="http://www.w3.org/1999/xlink" x="0px" y="0px"
	 viewBox="0 0 256.3 105.3" style="enable-background:new 0 0 256.3 105.3;" xml:space="preserve">
<style type="text/css">
	.st0{fill:#ED760A;}
	.st1{fill:#F9A01B;}
	.st2{fill:#1E1E1E;}
</style>
<path class="st0" d="M37.4,31.8c-19.9,0-36,16.1-36,36s16.1,36,36,36s36-16.1,36-36C73.4,47.9,57.2,31.8,37.4,31.8z M37.4,83.8
	c-8.8,0-16-7.2-16-16s7.2-16,16-16s16,7.2,16,16S46.2,83.8,37.4,83.8z"/>
<path class="st1" d="M23.4,29.1c-0.4,0.1-0.9,0.3-1.4,0.3c-1.6,0-3-1-3.7-2.4l0,0l-6.4-13.7l0.1,0.1c-0.3-0.5-0.4-1.1-0.4-1.8
	c0-1.5,0.9-2.9,2.2-3.6c7.1-3.6,15.1-5.7,23.6-5.7c28.4,0,51.5,23.1,51.5,51.5c0,15.1-6.5,28.8-16.9,38.2v0
	c-0.1,0.1-0.2,0.1-0.4,0.1c-0.3,0-0.5-0.2-0.5-0.5c0-0.1,0-0.2,0.1-0.4c4.6-6.7,7.4-14.7,7.4-23.5c0-22.7-18.4-41.2-41.2-41.2
	C32.5,26.6,27.8,27.5,23.4,29.1"/>
<path class="st2" d="M138.6,48.9v-0.8c0-2.2-0.8-3.8-7.2-3.8c-3.2,0-5.8,0.4-6.9,0.6c-3.5,0.5-4.3-0.4-4.9-3.8l-0.1-0.8
	c-0.1-0.9-0.3-1.6-0.3-2.2c0-2,1-2.7,4.1-3.3c3.1-0.6,9-0.8,12.2-0.8c12.6,0,16.5,3.1,16.7,13.6v16.4c0,3.7-0.7,4.8-4.7,5.8
	c-1.3,0.3-6.3,1.4-12.4,1.4c-9.1,0-17.8-2.4-17.8-11.3v-1.8c0-6.9,4.9-10.6,13.2-10.6C133.4,47.6,135.8,48.1,138.6,48.9z
	 M131.6,59.3c0,1.9,1.4,3.1,4.5,3.1c1,0,1.9-0.1,2.6-0.3v-4.4c-1.1-0.8-2.5-1-3.6-1c-2.4,0-3.5,0.9-3.5,2.4L131.6,59.3L131.6,59.3z"
	/>
<path class="st2" d="M194.9,50.8v1.1c0,15.3-10.2,19.5-21.3,19.5c-4.7,0-9.8-0.8-12.3-1.4c-2.5-0.8-4-2-4-5.1V24.3
	c0-2.9,1.2-4.1,4.1-4.1h5.4c2.9,0,4.1,1.2,4.1,4.1v12.5c3.9-2.1,6.9-2.6,9.6-2.6C189.5,34.1,194.9,40.1,194.9,50.8z M180.7,51.6
	c0-4.1-1.8-6.4-5.6-6.4c-1.3,0-2.9,0.3-4.2,1v14.5C172,61,173,61,173.6,61c3.9,0,7-2.6,7-8.5L180.7,51.6L180.7,51.6z"/>
<path class="st2" d="M217.2,65.8c0.1,3.3-0.7,4-3.5,4.5c-1.1,0.2-2.7,0.4-4.3,0.4c-6.3,0-10-2.9-10-12.7V24.9c0-3.3,1.4-4.8,4.8-4.8
	h4.1c3.3,0,4.8,1.4,4.8,4.8v33c0,1.9,0.2,2.4,1.2,2.4h0.6c1.8,0,2.3,1.7,2.4,3.8L217.2,65.8z"/>
<path class="st2" d="M237.2,59.3c2.6-5.4,4.5-11.8,4.5-18.9v-0.8c0-3.3,1.4-4.8,4.8-4.8h3.4c3.3,0,4.8,1.4,4.8,4.8v0.9
	c0,18.2-8.5,28.4-21.1,43.9c-0.8,1-1.6,1.6-2.7,1.6s-1.9-0.5-3-1.4l-2.4-1.9c-1.6-1.3-2.3-2.4-2.3-3.5c0-0.8,0.3-1.4,1-2.1
	c1.6-1.7,3.9-4.1,5.8-6.5c-3.1-4.2-10-19.3-12.3-31.3c-0.6-3.3-0.1-4.5,4.3-4.5h5.3c3.6,0,4.1,2.6,4.4,4.7
	c1.4,8.2,4.8,18.2,4.8,18.1L237.2,59.3z"/>
</svg>
